<svg width="17" height="17" viewBox="0 0 17 17" fill="none" xmlns="http://www.w3.org/2000/svg">
<path d="M15.1667 9.33333H9.33333V15.1667C9.33333 15.4761 9.21042 15.7728 8.99162 15.9916C8.77283 16.2104 8.47609 16.3333 8.16667 16.3333C7.85725 16.3333 7.5605 16.2104 7.34171 15.9916C7.12292 15.7728 7 15.4761 7 15.1667V9.33333H1.16667C0.857247 9.33333 0.560501 9.21042 0.341709 8.99162C0.122917 8.77283 0 8.47609 0 8.16667C0 7.85725 0.122917 7.5605 0.341709 7.34171C0.560501 7.12292 0.857247 7 1.16667 7H7V1.16667C7 0.857247 7.12292 0.560501 7.34171 0.341708C7.5605 0.122916 7.85725 0 8.16667 0C8.47609 0 8.77283 0.122916 8.99162 0.341708C9.21042 0.560501 9.33333 0.857247 9.33333 1.16667V7H15.1667C15.4761 7 15.7728 7.12292 15.9916 7.34171C16.2104 7.5605 16.3333 7.85725 16.3333 8.16667C16.3333 8.47609 16.2104 8.77283 15.9916 8.99162C15.7728 9.21042 15.4761 9.33333 15.1667 9.33333Z" fill="#E1E1E1"/>
</svg>
