<svg width="23" height="23" viewBox="0 0 23 23" fill="none" xmlns="http://www.w3.org/2000/svg">
<path d="M9.085 3.32426C7.46197 2.54936 5.19342 2.16977 2.15625 2.15629C1.86982 2.1524 1.589 2.23592 1.35125 2.39573C1.15611 2.52763 0.996363 2.70547 0.886072 2.91359C0.775782 3.12172 0.718324 3.35376 0.718752 3.5893V16.4414C0.718752 17.3102 1.33688 17.9656 2.15625 17.9656C5.34885 17.9656 8.55133 18.2639 10.4695 20.077C10.4957 20.1019 10.5287 20.1185 10.5643 20.1249C10.6 20.1312 10.6367 20.1269 10.6699 20.1126C10.7031 20.0982 10.7314 20.0744 10.7512 20.0441C10.771 20.0138 10.7814 19.9784 10.7813 19.9422V4.7986C10.7813 4.69643 10.7594 4.59544 10.7171 4.50245C10.6748 4.40945 10.613 4.32662 10.536 4.25953C10.0966 3.88391 9.60854 3.56932 9.085 3.32426ZM21.6488 2.39438C21.4109 2.23497 21.1301 2.15192 20.8438 2.15629C17.8066 2.16977 15.538 2.54756 13.915 3.32426C13.3915 3.56887 12.9033 3.88285 12.4636 4.25774C12.3867 4.32492 12.325 4.40778 12.2828 4.50076C12.2406 4.59374 12.2187 4.69468 12.2188 4.7968V19.9413C12.2187 19.9761 12.229 20.0101 12.2482 20.0391C12.2674 20.068 12.2948 20.0907 12.3268 20.1042C12.3589 20.1176 12.3942 20.1214 12.4284 20.1148C12.4625 20.1083 12.494 20.0919 12.5188 20.0675C13.672 18.922 15.6957 17.9643 20.8456 17.9647C21.2268 17.9647 21.5924 17.8133 21.862 17.5437C22.1316 17.2741 22.2831 16.9085 22.2831 16.5272V3.58975C22.2836 3.35374 22.226 3.12123 22.1154 2.91276C22.0047 2.70428 21.8445 2.52625 21.6488 2.39438Z" fill="#181818"/>
</svg>
