<svg width="29" height="29" viewBox="0 0 29 29" fill="none" xmlns="http://www.w3.org/2000/svg">
<g clip-path="url(#clip0_24_126)">
<path fill-rule="evenodd" clip-rule="evenodd" d="M15.3542 18.9793C15.1276 19.2058 14.8203 19.3331 14.4999 19.3331C14.1795 19.3331 13.8722 19.2058 13.6456 18.9793L6.81005 12.1438C6.69464 12.0323 6.60259 11.899 6.53926 11.7515C6.47594 11.6041 6.4426 11.4456 6.44121 11.2851C6.43981 11.1247 6.47039 10.9656 6.53114 10.8171C6.5919 10.6686 6.68162 10.5337 6.79508 10.4202C6.90853 10.3067 7.04344 10.217 7.19194 10.1563C7.34044 10.0955 7.49955 10.0649 7.66 10.0663C7.82044 10.0677 7.97899 10.1011 8.12642 10.1644C8.27384 10.2277 8.40717 10.3198 8.51864 10.4352L14.4999 16.4164L20.4811 10.4352C20.709 10.2151 21.0143 10.0933 21.3311 10.096C21.6479 10.0988 21.951 10.2259 22.175 10.4499C22.399 10.6739 22.5261 10.977 22.5289 11.2938C22.5316 11.6106 22.4098 11.9159 22.1897 12.1438L15.3542 18.9793Z" fill="#E1E1E1"/>
</g>
<defs>
<clipPath id="clip0_24_126">
<rect width="29" height="29" fill="white"/>
</clipPath>
</defs>
</svg>
