<svg width="23" height="23" viewBox="0 0 23 23" fill="none" xmlns="http://www.w3.org/2000/svg">
<path d="M4.4735 5.23969C4.44443 4.94035 4.47829 4.63825 4.57292 4.35278C4.66755 4.06732 4.82085 3.8048 5.02297 3.5821C5.22509 3.35941 5.47156 3.18145 5.74654 3.05968C6.02153 2.9379 6.31895 2.875 6.61969 2.875H10.0625C10.2531 2.875 10.4359 2.95073 10.5707 3.08552C10.7055 3.22031 10.7812 3.40313 10.7812 3.59375V4.14287C10.7812 5.14337 10.0668 5.842 9.52775 6.25456C9.46364 6.30157 9.40778 6.35889 9.36244 6.42419L9.34519 6.46012L9.34375 6.46875V6.47306L9.34806 6.48744C9.35285 6.50181 9.3701 6.52721 9.39981 6.56362C9.51075 6.67988 9.64237 6.77445 9.78794 6.8425C10.1919 7.04375 10.7956 7.1875 11.5 7.1875C12.2073 7.1875 12.811 7.04375 13.2106 6.8425C13.3567 6.77461 13.4888 6.68003 13.6002 6.56362C13.6215 6.54074 13.639 6.51452 13.6519 6.486L13.6562 6.47162V6.46012L13.639 6.42419C13.5937 6.35889 13.5378 6.30157 13.4737 6.25456C12.9346 5.842 12.2202 5.14337 12.2202 4.14287V3.59375C12.2202 3.40337 12.2957 3.22078 12.4302 3.08602C12.5647 2.95127 12.7471 2.87538 12.9375 2.875H16.3803C16.6811 2.875 16.9785 2.9379 17.2535 3.05968C17.5284 3.18145 17.7749 3.35941 17.977 3.5821C18.1791 3.8048 18.3324 4.06732 18.4271 4.35278C18.5217 4.63825 18.5556 4.94035 18.5265 5.23969L18.1772 9.34375H18.5179C18.7982 9.34375 19.1216 9.13244 19.4882 8.65375C19.7901 8.25987 20.2472 7.90625 20.8438 7.90625C21.6603 7.90625 22.2051 8.54881 22.5026 9.14537C22.8232 9.78506 23 10.6188 23 11.5C23 12.3812 22.8232 13.2149 22.5026 13.8546C22.2051 14.4512 21.6603 15.0938 20.8438 15.0938C20.2472 15.0938 19.7901 14.7401 19.4882 14.3462C19.1216 13.8676 18.7982 13.6562 18.5179 13.6562H18.1772L18.5265 17.7603C18.5556 18.0596 18.5217 18.3618 18.4271 18.6472C18.3324 18.9327 18.1791 19.1952 17.977 19.4179C17.7749 19.6406 17.5284 19.8185 17.2535 19.9403C16.9785 20.0621 16.6811 20.125 16.3803 20.125H12.9375C12.7469 20.125 12.5641 20.0493 12.4293 19.9145C12.2945 19.7797 12.2188 19.5969 12.2188 19.4062V18.8571C12.2188 17.8566 12.9332 17.158 13.4722 16.7454C13.5364 16.6984 13.5922 16.6411 13.6376 16.5758L13.6548 16.5399L13.6562 16.5312V16.5269L13.6519 16.5126C13.6389 16.4846 13.6214 16.4588 13.6002 16.4364C13.4893 16.3201 13.3576 16.2255 13.2121 16.1575C12.8081 15.9562 12.2044 15.8125 11.5 15.8125C10.7956 15.8125 10.189 15.9562 9.78937 16.1575C9.64329 16.2254 9.51117 16.32 9.39981 16.4364C9.37845 16.4593 9.36097 16.4855 9.34806 16.514L9.34375 16.5284V16.5312L9.34519 16.5399L9.36244 16.5758C9.38544 16.6146 9.43431 16.6736 9.52775 16.7454C10.0668 17.158 10.7812 17.8566 10.7812 18.8571V19.4062C10.7812 19.5969 10.7055 19.7797 10.5707 19.9145C10.4359 20.0493 10.2531 20.125 10.0625 20.125H6.61969C6.31895 20.125 6.02153 20.0621 5.74654 19.9403C5.47156 19.8185 5.22509 19.6406 5.02297 19.4179C4.82085 19.1952 4.66755 18.9327 4.57292 18.6472C4.47829 18.3618 4.44443 18.0596 4.4735 17.7603L4.82425 13.6562H4.48213C4.20181 13.6562 3.87838 13.8676 3.51181 14.3462C3.20994 14.7401 2.75281 15.0938 2.15625 15.0938C1.33975 15.0938 0.794937 14.4512 0.497375 13.8546C0.176812 13.2149 0 12.3812 0 11.5C0 10.6188 0.176812 9.78506 0.497375 9.14537C0.794937 8.54881 1.33975 7.90625 2.15625 7.90625C2.75281 7.90625 3.20994 8.25987 3.51181 8.65375C3.87838 9.13244 4.20181 9.34375 4.48213 9.34375H4.82425L4.4735 5.23969Z" fill="#181818"/>
</svg>
