<svg width="24" height="24" viewBox="0 0 24 24" fill="none" xmlns="http://www.w3.org/2000/svg">
<path d="M6.24995 7C6.24995 5.47501 6.85575 4.01247 7.93409 2.93414C9.01242 1.8558 10.475 1.25 12 1.25C13.5249 1.25 14.9875 1.8558 16.0658 2.93414C17.1442 4.01247 17.75 5.47501 17.75 7C17.75 8.52499 17.1442 9.98753 16.0658 11.0659C14.9875 12.1442 13.5249 12.75 12 12.75C10.475 12.75 9.01242 12.1442 7.93409 11.0659C6.85575 9.98753 6.24995 8.52499 6.24995 7ZM11.798 14.261C11.841 14.2545 11.8844 14.2508 11.928 14.25H12.072C12.116 14.25 12.1593 14.2537 12.202 14.261L19.497 15.544L19.535 15.552C20.879 15.862 22.323 16.715 22.604 18.372L22.608 18.401L22.722 19.278V19.28C22.986 21.289 21.393 22.75 19.512 22.75C19.4705 22.7492 19.429 22.7459 19.388 22.74H4.48795C2.60695 22.74 1.01295 21.278 1.27795 19.268L1.39195 18.399L1.39695 18.369C1.67695 16.742 3.13295 15.841 4.47395 15.55L4.50295 15.544L11.798 14.261Z" fill="#181818"/>
</svg>
