<svg width="19" height="19" viewBox="0 0 19 19" fill="none" xmlns="http://www.w3.org/2000/svg">
<path opacity="0.3" d="M5.98958 10.4167C6.61118 10.4167 7.20733 10.6636 7.64686 11.1031C8.0864 11.5427 8.33333 12.1388 8.33333 12.7604V16.4062C8.33333 17.0279 8.0864 17.624 7.64686 18.0635C7.20733 18.5031 6.61118 18.75 5.98958 18.75H2.34375C1.72215 18.75 1.12601 18.5031 0.686468 18.0635C0.24693 17.624 0 17.0279 0 16.4062V12.7604C0 12.1388 0.24693 11.5427 0.686468 11.1031C1.12601 10.6636 1.72215 10.4167 2.34375 10.4167H5.98958ZM16.4062 0C17.0279 0 17.624 0.24693 18.0635 0.686468C18.5031 1.12601 18.75 1.72215 18.75 2.34375V5.98958C18.75 6.61118 18.5031 7.20733 18.0635 7.64686C17.624 8.0864 17.0279 8.33333 16.4062 8.33333H12.7604C12.1388 8.33333 11.5427 8.0864 11.1031 7.64686C10.6636 7.20733 10.4167 6.61118 10.4167 5.98958V2.34375C10.4167 1.72215 10.6636 1.12601 11.1031 0.686468C11.5427 0.24693 12.1388 0 12.7604 0H16.4062Z" fill="#3B83F2"/>
<path d="M5.98958 0C6.61118 0 7.20733 0.24693 7.64686 0.686468C8.0864 1.12601 8.33333 1.72215 8.33333 2.34375V5.98958C8.33333 6.61118 8.0864 7.20733 7.64686 7.64686C7.20733 8.0864 6.61118 8.33333 5.98958 8.33333H2.34375C1.72215 8.33333 1.12601 8.0864 0.686468 7.64686C0.24693 7.20733 0 6.61118 0 5.98958V2.34375C0 1.72215 0.24693 1.12601 0.686468 0.686468C1.12601 0.24693 1.72215 0 2.34375 0H5.98958Z" fill="#3B83F2"/>
<path opacity="0.3" d="M16.4063 10.4166C17.0279 10.4166 17.624 10.6636 18.0636 11.1031C18.5031 11.5426 18.75 12.1388 18.75 12.7604V16.4062C18.75 17.0278 18.5031 17.624 18.0636 18.0635C17.624 18.503 17.0279 18.75 16.4063 18.75H12.7604C12.1388 18.75 11.5427 18.503 11.1032 18.0635C10.6636 17.624 10.4167 17.0278 10.4167 16.4062V12.7604C10.4167 12.1388 10.6636 11.5426 11.1032 11.1031C11.5427 10.6636 12.1388 10.4166 12.7604 10.4166H16.4063Z" fill="#3B83F2"/>
</svg>
